<?xml version="1.0" standalone="no"?>
<!DOCTYPE svg PUBLIC "-//W3C//DTD SVG 20010904//EN"
 "http://www.w3.org/TR/2001/REC-SVG-20010904/DTD/svg10.dtd">
<svg version="1.0" xmlns="http://www.w3.org/2000/svg"
 width="512.000000pt" height="512.000000pt" viewBox="0 0 512.000000 512.000000"
 preserveAspectRatio="xMidYMid meet">
<metadata>
Created by potrace 1.14, written by Peter Selinger 2001-2017
</metadata>
<g transform="translate(0.000000,512.000000) scale(0.100000,-0.100000)"
fill="#000000" stroke="none">
<path d="M2812 4991 c2 -19 9 -37 17 -39 11 -4 12 2 7 24 -11 45 -28 55 -24
15z"/>
<path d="M3009 5017 c0 -1 -2 -13 -4 -27 -2 -14 -6 -35 -10 -47 -6 -18 -3 -23
9 -23 9 0 16 -5 16 -11 0 -8 -13 -10 -38 -7 -20 3 -71 2 -112 -3 -41 -5 -84
-10 -96 -12 -11 -1 -29 -8 -38 -16 -15 -13 -18 -12 -23 7 -3 12 -11 22 -19 22
-8 0 -11 -6 -8 -15 8 -20 1 -19 -38 5 -40 24 -48 25 -48 5 0 -13 -3 -13 -20
-3 -17 11 -22 10 -30 -2 -7 -11 -4 -16 13 -18 12 -2 29 -6 37 -9 8 -3 29 -5
45 -4 24 1 27 0 13 -9 -9 -5 -27 -10 -40 -10 -91 0 -237 -11 -313 -24 -50 -8
-94 -11 -99 -6 -5 5 -19 2 -32 -7 -13 -8 -27 -12 -32 -9 -6 3 -29 -1 -53 -10
-24 -8 -69 -21 -99 -29 -48 -12 -118 -36 -250 -85 -42 -16 -306 -150 -370
-188 -90 -53 -242 -174 -346 -274 -223 -215 -398 -465 -524 -751 -11 -26 -29
-53 -40 -59 -13 -9 -16 -16 -9 -24 7 -8 3 -31 -12 -71 -11 -32 -23 -69 -26
-83 -3 -14 -14 -55 -25 -93 -18 -57 -24 -67 -40 -61 -20 6 -78 -41 -78 -63 0
-19 -20 -16 -27 5 -7 21 -43 51 -60 52 -23 0 -13 -52 16 -85 16 -18 31 -39 34
-47 4 -10 7 -10 16 2 17 24 14 -6 -5 -46 -20 -42 -49 -64 -86 -64 -39 0 -35
-21 12 -59 51 -41 60 -74 29 -107 -13 -14 -34 -24 -51 -24 -39 0 -48 -28 -17
-52 72 -57 81 -68 75 -92 -4 -16 -19 -29 -46 -40 -54 -21 -53 -44 3 -80 16 -9
35 -33 43 -53 13 -31 13 -38 -1 -59 -9 -14 -27 -30 -41 -36 -38 -17 -32 -56
11 -74 72 -30 83 -101 22 -149 -27 -20 -30 -28 -21 -42 6 -10 24 -23 41 -28
42 -14 61 -32 68 -65 7 -30 -12 -77 -40 -100 -10 -8 -13 -20 -9 -34 8 -27 22
-36 55 -36 69 0 96 -78 50 -141 -18 -24 -21 -36 -14 -48 14 -22 43 -26 43 -7
0 25 45 47 108 53 74 7 88 -9 32 -37 -22 -11 -47 -31 -56 -44 -18 -28 -30
-164 -16 -184 5 -7 28 -13 53 -14 55 0 77 -12 90 -46 8 -20 6 -35 -6 -63 -19
-42 -17 -67 7 -83 13 -8 24 -5 49 13 25 19 33 21 40 10 4 -8 4 -16 -2 -20 -6
-4 0 -21 15 -44 28 -40 32 -60 16 -70 -6 -3 -10 -20 -10 -36 0 -34 23 -48 51
-31 26 17 65 15 84 -4 14 -15 14 -19 -4 -48 l-20 -32 25 -37 c13 -20 30 -37
37 -37 7 0 28 13 47 30 19 16 40 29 45 30 19 0 67 49 110 110 42 60 95 111 95
91 0 -5 -4 -12 -8 -15 -5 -3 -26 -35 -48 -72 -41 -70 -123 -153 -174 -176 -39
-17 -38 -29 3 -26 30 3 32 1 32 -29 1 -53 16 -60 81 -38 78 26 90 17 86 -67
-5 -79 6 -87 73 -57 25 11 56 19 68 17 20 -3 23 -10 27 -73 4 -63 7 -70 27
-73 12 -2 39 8 60 22 64 44 93 30 93 -42 0 -85 34 -104 93 -52 36 31 74 39 95
18 7 -7 12 -32 12 -57 0 -50 22 -83 48 -74 10 4 34 21 55 40 20 18 46 33 56
33 27 0 51 -37 51 -77 0 -37 31 -76 54 -67 8 3 26 23 40 44 45 68 97 62 116
-13 22 -90 42 -96 100 -27 59 71 86 66 121 -23 28 -70 63 -76 92 -15 40 86 90
88 126 8 36 -80 70 -80 100 -1 29 79 77 81 125 6 23 -38 33 -46 54 -43 20 2
27 12 37 46 27 90 62 96 129 20 38 -45 48 -51 63 -42 10 6 24 33 32 60 7 27
18 55 23 61 20 25 53 14 94 -33 36 -42 42 -46 61 -35 15 8 24 25 29 57 6 44
32 84 54 84 6 0 30 -18 54 -40 24 -22 50 -40 59 -40 25 0 47 40 47 85 0 72 42
85 105 35 21 -16 44 -30 51 -30 26 0 44 31 44 79 0 73 29 89 94 50 19 -11 45
-19 58 -17 21 3 23 9 26 65 4 81 17 92 80 70 87 -31 112 -16 98 59 -4 19 -2
43 4 55 10 18 18 20 48 14 21 -3 53 -7 72 -8 l35 -2 0 62 c0 79 10 89 69 74
74 -18 91 3 65 78 -9 26 -9 36 3 47 12 13 22 13 61 2 41 -10 49 -10 63 4 14
13 14 23 3 78 -11 58 -11 64 6 76 12 9 32 12 55 8 50 -8 80 9 80 44 0 16 -4
32 -8 37 -5 6 -13 22 -20 38 -18 41 12 67 77 67 69 0 81 17 53 76 -38 77 -26
114 36 114 74 0 91 37 47 102 -44 65 -32 91 52 111 62 15 68 41 24 102 -17 24
-31 50 -31 59 0 20 39 56 60 56 20 0 60 36 60 54 0 8 -18 32 -40 55 -22 22
-40 45 -40 49 0 19 29 46 71 66 63 30 63 55 2 110 -54 50 -53 67 5 97 74 38
79 57 23 97 -56 39 -66 58 -47 87 9 13 32 31 51 41 45 21 47 54 6 83 -16 12
-34 21 -40 21 -15 0 -32 36 -26 53 3 7 24 24 45 36 60 34 50 70 -27 100 -49
20 -53 49 -12 83 18 15 37 28 41 28 10 0 10 41 0 56 -4 7 -28 22 -54 34 -60
28 -64 56 -13 94 35 27 45 58 23 73 -7 4 -33 15 -58 24 -60 21 -66 50 -16 91
20 16 36 36 36 44 0 23 -38 54 -68 54 -34 0 -72 25 -72 49 0 9 16 32 35 51 57
55 45 82 -40 95 -27 4 -56 12 -62 17 -21 17 -15 53 12 78 17 16 25 33 23 50
-3 23 -7 25 -63 28 -32 2 -65 8 -72 14 -20 16 -15 48 12 84 45 58 25 91 -50
81 -48 -7 -64 3 -39 24 20 17 46 79 39 96 -2 8 -21 21 -40 29 -19 8 -35 18
-35 23 0 5 17 38 38 72 55 91 67 130 51 177 -20 61 -135 194 -234 270 -33 26
-61 50 -63 54 -8 18 -23 7 -17 -12 5 -14 2 -20 -9 -20 -10 0 -16 9 -16 25 0
18 -7 26 -27 31 -33 9 -53 -15 -53 -63 0 -41 -17 -53 -145 -96 -55 -19 -112
-39 -126 -45 -38 -15 -105 -97 -144 -173 -69 -138 -135 -223 -225 -292 -30
-23 -66 -55 -80 -72 -58 -69 -118 -106 -128 -76 -6 17 -32 -6 -32 -29 0 -29
-40 -71 -60 -65 -13 4 -25 -4 -40 -25 -13 -19 -30 -30 -45 -30 -28 0 -41 -40
-23 -69 15 -24 -4 -51 -36 -51 -11 0 -27 -4 -34 -8 -16 -11 -52 -77 -52 -96 0
-20 -166 -190 -178 -182 -6 3 -22 2 -37 -4 -23 -9 -25 -13 -19 -46 6 -34 3
-39 -52 -95 -43 -43 -66 -59 -86 -59 -28 0 -49 -24 -41 -48 3 -7 -7 -22 -21
-33 -14 -11 -26 -28 -26 -37 0 -14 -54 -77 -109 -127 -6 -5 -23 -25 -37 -42
-29 -37 -54 -43 -54 -13 0 28 -28 37 -48 16 -14 -13 -14 -20 -4 -36 17 -28 -7
-27 -31 0 -20 24 -31 25 -51 4 -31 -30 -12 -64 36 -64 44 0 38 -40 -13 -87
-65 -59 -67 -62 -74 -82 -8 -28 -35 -35 -35 -10 0 26 -28 36 -47 16 -20 -20
-10 -47 18 -47 21 0 22 -1 4 -20 -18 -20 -55 -19 -82 2 -15 12 -80 -10 -88
-30 -7 -19 23 -41 58 -42 16 0 26 -4 22 -10 -3 -5 -17 -10 -31 -10 -25 0 -32
-18 -13 -37 19 -19 -29 -70 -83 -90 -46 -17 -70 -50 -46 -64 7 -4 -1 -13 -20
-23 -18 -9 -32 -25 -34 -38 -3 -20 -8 -23 -48 -21 -25 2 -55 -2 -67 -9 -17 -8
-26 -8 -38 2 -20 17 -19 27 5 35 21 7 28 25 10 25 -6 0 -29 -12 -51 -26 -23
-14 -42 -24 -44 -22 -2 2 11 20 30 40 22 23 47 38 72 43 59 11 96 54 58 69
-22 8 -42 -2 -48 -25 -4 -13 -14 -19 -35 -19 -17 0 -34 5 -37 10 -10 16 5 50
21 50 11 0 13 6 8 22 -6 20 -5 21 8 10 8 -7 41 -17 72 -23 53 -9 58 -9 89 15
19 15 45 26 59 26 30 0 53 23 44 45 -8 21 -20 19 -54 -10 -21 -18 -33 -22 -38
-14 -4 7 -22 9 -49 5 -33 -4 -44 -2 -49 9 -9 24 -52 18 -70 -10 -23 -36 -36
-31 -33 13 l2 37 -57 -1 c-49 -1 -58 1 -58 17 0 12 15 23 48 35 59 22 72 32
72 54 0 19 -19 30 -51 30 -27 0 -59 -35 -59 -64 0 -27 -13 -35 -47 -28 -26 5
-30 20 -8 28 10 4 13 13 10 25 -4 11 2 26 14 38 16 16 17 21 7 21 -8 0 -18 -5
-21 -11 -4 -6 -13 -8 -21 -5 -7 3 -16 1 -19 -4 -11 -17 -23 -11 -38 20 -16 31
-10 44 17 34 25 -10 19 14 -8 31 -23 15 -26 15 -45 -4 -18 -18 -19 -21 -5 -29
13 -7 11 -10 -12 -15 -16 -3 -38 -9 -49 -13 -16 -6 -18 -5 -7 7 19 21 15 25
-24 21 -25 -3 -33 -7 -25 -15 17 -17 13 -27 -9 -27 -11 0 -21 -6 -21 -12 -2
-24 3 -43 14 -51 8 -6 5 -7 -6 -3 -25 8 -47 -3 -47 -24 0 -10 -4 -20 -8 -22
-12 -5 -50 -144 -62 -228 -21 -146 10 -351 70 -456 25 -43 30 -60 24 -89 -4
-25 -1 -42 10 -60 15 -22 15 -28 2 -53 -8 -16 -15 -55 -15 -87 0 -52 -3 -61
-28 -81 -15 -13 -36 -22 -46 -20 -29 7 -107 -20 -181 -64 -84 -49 -127 -52
-168 -13 -15 15 -28 32 -28 39 0 6 25 31 56 54 79 61 134 127 174 206 l35 68
0 281 c1 278 1 281 33 416 75 324 140 479 300 718 86 127 158 206 347 376 195
175 292 241 525 359 161 81 209 101 355 144 117 35 244 59 370 68 162 13 450
94 560 158 88 52 271 216 240 216 -14 0 -62 -30 -80 -50 -29 -32 -296 -152
-400 -180 -16 -5 -56 -15 -88 -24 -37 -10 -64 -13 -74 -7 -13 7 -6 11 28 19
98 24 119 30 175 58 145 70 363 213 464 304 51 45 53 49 29 50 -45 0 -63 23
-69 86 -6 69 -24 80 -70 40 -41 -34 -65 -40 -93 -21 -19 12 -26 27 -29 66 -3
29 -13 58 -22 67 -16 16 -19 15 -44 -15 -37 -45 -76 -58 -108 -37 -32 21 -44
45 -44 84 0 43 -27 51 -53 15 -11 -15 -36 -34 -55 -42 -30 -12 -37 -12 -57 1
-13 9 -30 37 -40 65 -9 27 -23 52 -31 55 -7 3 -14 4 -15 3z m-286 -174 c-7 -2
-21 -2 -30 0 -10 3 -4 5 12 5 17 0 24 -2 18 -5z m1657 -332 c0 -10 -7 -24 -15
-31 -8 -7 -56 -74 -107 -149 -109 -163 -110 -164 -102 -123 10 47 -14 42 -69
-17 -96 -102 -207 -388 -207 -530 0 -31 12 -119 26 -196 31 -173 43 -475 25
-606 -40 -274 -143 -544 -299 -779 -56 -85 -110 -150 -206 -246 -127 -127
-234 -219 -243 -210 -3 2 56 64 129 138 191 190 316 353 401 523 39 79 113
285 132 370 35 157 44 353 24 520 -22 178 -91 357 -186 485 -61 82 -105 112
-149 104 -27 -5 -35 -2 -49 19 -21 32 -9 58 37 80 75 36 131 57 148 57 11 0
32 17 47 38 15 20 31 38 35 40 15 7 142 143 158 170 10 16 50 55 89 88 39 32
73 65 76 74 3 9 38 33 78 53 40 20 88 53 107 73 38 40 88 74 108 74 6 0 12 -8
12 -19z m101 -11 c33 -18 52 -67 40 -103 -19 -54 -61 -88 -61 -49 0 10 -9 47
-20 81 -12 34 -18 66 -15 71 8 13 31 13 56 0z m-1802 -74 c24 -26 37 -89 27
-130 -4 -17 -17 -28 -41 -36 -19 -6 -35 -15 -35 -18 2 -27 63 -62 110 -62 16
0 32 -5 36 -11 13 -21 -121 -4 -161 20 -47 28 -55 27 -85 -10 -27 -35 -145
-121 -200 -147 -19 -9 -37 -18 -40 -21 -12 -14 -61 -34 -67 -28 -7 8 -10 6 45
35 23 12 61 32 85 45 58 30 149 124 169 172 8 22 26 74 38 115 12 41 27 81 32
88 17 20 63 14 87 -12z m1311 -110 c0 -3 -4 -8 -10 -11 -5 -3 -10 -1 -10 4 0
6 5 11 10 11 6 0 10 -2 10 -4z m-130 -81 c0 -22 -37 -55 -55 -49 -16 6 -19 22
-9 48 8 21 64 22 64 1z m-867 -32 c-13 -2 -33 -2 -45 0 -13 2 -3 4 22 4 25 0
35 -2 23 -4z m-88 -13 c4 -6 -12 -10 -42 -9 -39 1 -43 3 -23 9 36 11 58 11 65
0z m-949 -232 c65 -49 99 -48 203 5 37 18 51 21 51 10 0 -5 -22 -18 -48 -29
-26 -12 -65 -29 -86 -39 -32 -14 -55 -16 -120 -12 -45 4 -86 3 -92 -1 -6 -4
-26 -38 -44 -76 -28 -59 -57 -94 -199 -237 -131 -131 -178 -172 -225 -195 -54
-25 -61 -27 -100 -15 -85 25 -80 31 -86 -105 -5 -120 -5 -122 -52 -215 -59
-119 -133 -199 -218 -235 -33 -15 -60 -29 -60 -33 0 -3 7 -15 15 -25 24 -32
19 -47 -12 -35 -35 13 -53 5 -53 -23 l0 -23 -20 25 c-23 31 -35 89 -21 103 6
6 37 14 69 18 32 3 76 15 98 25 87 41 206 205 226 313 13 73 5 184 -22 291
-25 99 -33 281 -13 301 17 17 30 -20 53 -159 22 -132 46 -174 109 -193 34 -10
44 -8 92 15 94 46 326 284 367 376 19 43 23 66 19 106 -6 58 -3 65 43 99 38
28 42 26 126 -37z m2634 -738 c0 -14 -32 -28 -100 -44 -55 -13 -61 -13 -58 1
5 27 158 68 158 43z m-3363 -626 c-3 -3 -12 -4 -19 -1 -8 3 -5 6 6 6 11 1 17
-2 13 -5z m103 -29 c0 -8 -7 -15 -15 -15 -16 0 -20 12 -8 23 11 12 23 8 23 -8z
m-388 -47 c-9 -9 -12 -7 -12 12 0 19 3 21 12 12 9 -9 9 -15 0 -24z m3539 -28
c20 -152 -194 -411 -399 -481 -58 -20 -168 -26 -157 -9 3 6 29 10 56 10 65 0
119 28 189 99 56 57 64 70 143 241 47 101 118 193 146 188 11 -2 18 -18 22
-48z m-3559 -42 c-9 -9 -12 -7 -12 12 0 19 3 21 12 12 9 -9 9 -15 0 -24z m368
-3 c0 -15 -21 -12 -30 5 -11 20 -10 21 9 10 12 -6 21 -13 21 -15z m126 -5 c0
-22 -4 -24 -25 -11 -15 10 -7 31 12 31 7 0 13 -9 13 -20z m-510 -47 c-10 -10
-19 5 -10 18 6 11 8 11 12 0 2 -7 1 -15 -2 -18z m616 -8 c-5 -25 -20 -35 -54
-35 -17 0 -31 -8 -38 -19 -11 -21 -55 -18 -45 3 3 6 8 19 11 29 5 14 13 16 39
11 27 -5 35 -2 45 16 14 26 46 23 42 -5z m-632 -34 c0 -6 -4 -13 -10 -16 -5
-3 -10 1 -10 9 0 9 5 16 10 16 6 0 10 -4 10 -9z m-26 -60 c-5 -3 -16 -19 -24
-35 -8 -16 -34 -51 -57 -77 -24 -26 -43 -49 -43 -52 0 -3 14 -19 30 -35 17
-17 30 -34 30 -39 0 -4 -27 -9 -60 -11 -49 -2 -63 1 -80 18 -36 36 -24 55 82
124 36 23 69 56 89 88 18 28 35 45 37 38 3 -7 1 -15 -4 -19z m424 -22 c-2 -6
-8 -10 -13 -10 -5 0 -11 4 -13 10 -2 6 4 11 13 11 9 0 15 -5 13 -11z m3463
-112 c-13 -13 -15 31 -3 60 5 14 8 10 10 -16 2 -18 -1 -38 -7 -44z m-3061 -35
c0 -5 -11 -19 -25 -32 -23 -21 -29 -23 -56 -13 -26 10 -33 9 -47 -8 -18 -20
-42 -26 -42 -9 0 6 10 15 23 20 12 6 36 19 52 29 30 20 95 28 95 13z m3041
-85 c-6 -6 -11 -26 -11 -43 0 -18 -4 -36 -10 -39 -5 -3 -10 -15 -10 -27 0 -21
-36 -140 -51 -170 -5 -10 -9 -23 -9 -29 0 -17 -90 -219 -112 -251 -10 -14 -18
-28 -18 -31 0 -3 -23 -43 -51 -89 -157 -252 -387 -491 -630 -653 -94 -62 -297
-171 -384 -206 -69 -28 -149 -57 -190 -70 -22 -6 -49 -15 -60 -19 -22 -9 -78
-22 -165 -40 -30 -7 -72 -16 -93 -22 -41 -10 -515 -25 -507 -15 3 3 70 6 150
7 80 1 183 9 230 17 47 7 114 19 150 24 266 44 608 184 855 350 120 81 297
232 381 326 211 236 382 526 454 768 7 22 16 48 21 57 5 10 9 29 9 42 0 14 4
27 9 30 5 3 11 20 14 38 15 87 19 104 25 118 4 9 8 -1 10 -24 2 -21 -1 -43 -7
-49z m49 -51 c0 -3 -4 -8 -10 -11 -5 -3 -10 -1 -10 4 0 6 5 11 10 11 6 0 10
-2 10 -4z m-3550 -96 c0 -5 -7 -10 -16 -10 -8 0 -12 5 -9 10 3 6 10 10 16 10
5 0 9 -4 9 -10z m47 -294 c-6 -17 -41 -13 -45 5 -2 13 3 15 23 11 14 -2 24
-10 22 -16z m1893 20 c0 -2 -8 -10 -17 -17 -16 -13 -17 -12 -4 4 13 16 21 21
21 13z m-60 -51 c-7 -8 -18 -15 -24 -15 -6 0 -2 7 8 15 25 19 32 19 16 0z
m-2483 -91 c-3 -3 -12 -4 -19 -1 -8 3 -5 6 6 6 11 1 17 -2 13 -5z m568 -42
c-3 -3 -11 0 -18 7 -9 10 -8 11 6 5 10 -3 15 -9 12 -12z m301 -17 c17 -27 139
-90 229 -120 132 -44 370 -71 491 -56 49 6 103 11 119 10 29 0 29 -1 7 -10
-67 -26 -171 -33 -504 -34 l-346 0 -39 -31 c-21 -17 -53 -58 -71 -90 -18 -32
-42 -69 -53 -80 -23 -24 -100 -50 -123 -41 -22 9 -12 89 26 210 26 83 29 102
18 121 -22 42 -10 58 61 81 36 12 81 31 100 43 44 28 65 28 85 -3z m2219 -85
c3 -5 -6 -22 -20 -38 -45 -54 -180 -95 -238 -73 -28 11 -25 13 88 70 110 55
155 66 170 41z m-2751 -236 c33 -13 6 -55 -42 -67 -32 -8 -52 1 -52 24 0 33
54 58 94 43z"/>
<path d="M3785 4680 c-23 -26 -4 -26 26 0 18 15 20 19 8 20 -9 0 -24 -9 -34
-20z"/>
<path d="M2930 3949 c0 -6 -6 -9 -14 -6 -17 7 -40 -18 -31 -33 9 -15 41 -12
59 6 20 20 21 44 1 44 -8 0 -15 -5 -15 -11z"/>
<path d="M3182 3924 c-45 -31 -13 -70 33 -40 28 19 33 41 9 50 -20 8 -16 9
-42 -10z"/>
<path d="M2400 3892 c-24 -19 -21 -42 5 -42 21 0 45 29 39 45 -8 20 -17 19
-44 -3z"/>
<path d="M2543 3883 c-24 -16 -30 -38 -14 -47 19 -12 40 6 39 35 -1 16 -1 29
-2 28 -1 0 -11 -7 -23 -16z"/>
<path d="M2970 3885 c-14 -17 -7 -45 13 -45 19 0 37 21 37 42 0 22 -32 24 -50
3z"/>
<path d="M3068 3829 c-18 -10 -25 -49 -10 -49 16 0 52 32 52 46 0 16 -17 18
-42 3z"/>
<path d="M2720 3820 c-8 -5 -11 -12 -8 -16 10 -9 38 3 38 16 0 12 -10 13 -30
0z"/>
<path d="M2765 3786 c-12 -8 -16 -19 -12 -30 8 -20 26 -17 41 7 16 24 -5 41
-29 23z"/>
<path d="M2430 3761 c0 -11 5 -23 10 -26 6 -3 10 -2 10 4 0 5 3 16 6 25 4 11
1 16 -10 16 -9 0 -16 -8 -16 -19z"/>
<path d="M2612 3758 c-19 -19 -14 -30 11 -26 12 2 22 9 22 17 0 19 -18 24 -33
9z"/>
<path d="M2972 3748 c7 -19 38 -22 38 -4 0 10 -9 16 -21 16 -12 0 -19 -5 -17
-12z"/>
<path d="M2172 3717 c-14 -17 2 -42 22 -34 20 8 21 47 2 47 -7 0 -18 -6 -24
-13z"/>
<path d="M405 3683 c4 -10 10 -26 12 -35 3 -10 9 -15 14 -12 16 10 9 39 -12
53 -20 12 -21 11 -14 -6z"/>
<path d="M2736 3692 c-8 -13 11 -35 23 -28 16 10 14 36 -3 36 -8 0 -17 -4 -20
-8z"/>
<path d="M2255 3649 c-4 -6 -5 -13 -2 -16 7 -7 27 6 27 18 0 12 -17 12 -25 -2z"/>
<path d="M2566 3643 c-4 -9 -3 -20 2 -25 14 -14 42 2 42 23 0 24 -35 26 -44 2z"/>
<path d="M2910 3615 c0 -8 5 -15 10 -15 6 0 10 7 10 15 0 8 -4 15 -10 15 -5 0
-10 -7 -10 -15z"/>
<path d="M2766 3603 c-3 -3 -6 -17 -6 -30 0 -20 5 -24 22 -21 29 4 35 34 10
47 -11 6 -22 7 -26 4z"/>
<path d="M1953 3584 c-3 -8 -1 -20 5 -26 16 -16 47 -5 50 20 3 18 -1 22 -23
22 -14 0 -28 -7 -32 -16z"/>
<path d="M2167 3583 c-12 -12 -7 -43 7 -43 18 0 39 27 31 40 -7 11 -28 13 -38
3z"/>
<path d="M2846 3544 c-19 -19 -20 -26 -4 -42 30 -30 85 11 57 44 -15 18 -34
18 -53 -2z"/>
<path d="M1816 3521 c-23 -25 -20 -41 9 -41 20 0 25 5 25 24 0 33 -14 40 -34
17z"/>
<path d="M2285 3529 c-4 -6 -4 -13 -1 -16 8 -8 36 5 36 17 0 13 -27 13 -35 -1z"/>
<path d="M2504 3515 c-3 -8 -3 -19 0 -24 10 -16 36 -1 36 20 0 22 -28 26 -36
4z"/>
<path d="M2090 3495 c-15 -18 -6 -45 13 -45 8 0 20 7 27 15 10 12 10 18 0 30
-16 19 -24 19 -40 0z"/>
<path d="M2308 3472 c-7 -27 3 -41 32 -44 22 -3 25 1 25 27 0 25 -4 31 -26 33
-19 2 -28 -2 -31 -16z"/>
<path d="M291 3454 c-1 -17 6 -37 14 -44 8 -7 15 -19 15 -26 0 -8 5 -14 10
-14 16 0 11 36 -9 61 -10 13 -21 31 -24 39 -3 8 -6 1 -6 -16z"/>
<path d="M2456 3457 c-26 -19 -13 -57 19 -57 27 0 39 24 25 51 -13 23 -20 24
-44 6z"/>
<path d="M1715 3409 c-4 -6 -4 -13 -1 -16 8 -8 36 5 36 17 0 13 -27 13 -35 -1z"/>
<path d="M2596 3404 c-7 -19 11 -57 26 -52 23 8 32 36 19 52 -17 20 -37 20
-45 0z"/>
<path d="M2167 3403 c-24 -6 -17 -38 8 -38 13 0 21 8 23 23 3 22 1 23 -31 15z"/>
<path d="M2285 3380 c-3 -5 -13 -6 -21 -3 -12 4 -15 1 -12 -13 3 -20 58 -34
58 -15 0 5 3 16 6 25 7 18 -20 23 -31 6z"/>
<path d="M1740 3340 c0 -5 4 -10 9 -10 6 0 13 5 16 10 3 6 -1 10 -9 10 -9 0
-16 -4 -16 -10z"/>
<path d="M1855 3301 c-7 -12 29 -33 39 -24 3 3 6 12 6 20 0 15 -36 18 -45 4z"/>
<path d="M2391 3296 c-17 -20 -2 -48 23 -44 27 4 32 34 8 47 -15 8 -23 7 -31
-3z"/>
<path d="M2082 3258 c2 -15 11 -24 26 -26 20 -3 23 0 20 20 -2 15 -11 24 -26
26 -20 3 -23 0 -20 -20z"/>
<path d="M1740 3254 c0 -9 5 -14 12 -12 18 6 21 28 4 28 -9 0 -16 -7 -16 -16z"/>
<path d="M220 3251 c0 -13 50 -71 61 -71 5 0 9 14 9 30 0 24 -6 33 -26 40 -32
12 -44 13 -44 1z"/>
<path d="M360 3250 c0 -5 5 -10 10 -10 6 0 10 5 10 10 0 6 -4 10 -10 10 -5 0
-10 -4 -10 -10z"/>
<path d="M2480 3240 c-10 -18 -8 -20 20 -20 23 0 30 4 30 20 0 13 -7 20 -20
20 -10 0 -24 -9 -30 -20z"/>
<path d="M2630 3249 c0 -5 5 -7 10 -4 6 3 10 8 10 11 0 2 -4 4 -10 4 -5 0 -10
-5 -10 -11z"/>
<path d="M1496 3213 c-9 -28 -3 -38 24 -38 17 0 26 -6 28 -20 6 -29 17 -38 41
-30 21 6 30 45 11 45 -5 0 -19 9 -30 20 -11 11 -20 25 -20 30 0 18 -48 11 -54
-7z"/>
<path d="M375 3210 c-3 -5 -1 -10 4 -10 6 0 11 5 11 10 0 6 -2 10 -4 10 -3 0
-8 -4 -11 -10z"/>
<path d="M2190 3186 c0 -14 -4 -28 -10 -31 -5 -3 -10 -15 -10 -26 0 -14 7 -19
24 -19 34 0 41 16 26 61 -15 44 -30 51 -30 15z"/>
<path d="M1754 3179 c-11 -18 13 -34 31 -19 8 7 15 16 15 21 0 13 -38 11 -46
-2z"/>
<path d="M2500 3135 c-7 -9 -10 -18 -7 -21 10 -11 37 5 37 21 0 19 -14 19 -30
0z"/>
<path d="M340 3126 c0 -9 5 -16 10 -16 6 0 10 4 10 9 0 6 -4 13 -10 16 -5 3
-10 -1 -10 -9z"/>
<path d="M2026 3117 c-28 -20 -14 -49 21 -45 22 2 28 8 28 28 0 29 -22 37 -49
17z"/>
<path d="M2300 3111 c-15 -28 -13 -33 13 -29 14 2 23 11 25 26 4 28 -23 30
-38 3z"/>
<path d="M1426 3098 c-9 -12 -16 -29 -16 -36 0 -7 -8 -21 -17 -30 -16 -16 -16
-17 0 -20 11 -2 17 -13 17 -29 0 -20 -4 -24 -17 -18 -46 18 -74 15 -83 -9 -5
-13 -14 -27 -19 -31 -17 -10 -13 -25 7 -25 13 0 10 -6 -12 -23 -17 -14 -26
-29 -22 -35 4 -7 -4 -22 -18 -34 -14 -13 -28 -35 -32 -50 -6 -26 -5 -27 33
-21 21 3 43 10 50 15 7 5 16 7 22 4 5 -3 21 -2 35 4 18 7 26 17 26 35 0 23 36
58 56 54 21 -3 28 2 14 11 -12 7 -11 12 5 30 15 17 16 23 6 29 -18 11 -5 48
22 63 l21 11 -23 8 c-12 5 -20 13 -16 19 3 6 -1 7 -9 4 -22 -9 -20 12 4 36 24
24 26 46 4 54 -22 8 -21 9 -38 -16z m-26 -177 c0 -14 -18 -23 -30 -16 -6 4 -8
11 -5 16 8 12 35 12 35 0z"/>
<path d="M1672 3098 c-15 -15 -15 -35 0 -40 8 -3 7 -11 -5 -28 -23 -32 -21
-40 6 -40 43 0 56 20 50 73 -6 49 -24 62 -51 35z"/>
<path d="M1883 3085 c-3 -9 -3 -18 0 -22 10 -10 37 6 37 22 0 20 -29 20 -37 0z"/>
<path d="M2147 3035 c-23 -22 -10 -47 22 -43 20 2 26 8 26 28 0 30 -26 38 -48
15z"/>
<path d="M2282 2991 c-16 -10 -13 -43 5 -48 15 -5 56 35 48 47 -8 12 -35 13
-53 1z"/>
<path d="M2040 2965 c-19 -22 -4 -45 28 -45 33 0 57 22 48 45 -7 19 -60 20
-76 0z"/>
<path d="M2190 2935 c0 -29 21 -33 44 -9 20 20 12 34 -20 34 -19 0 -24 -5 -24
-25z"/>
<path d="M1812 2938 c-32 -16 -26 -52 9 -56 33 -4 75 29 66 51 -7 19 -41 21
-75 5z"/>
<path d="M1564 2906 c-22 -17 -13 -31 28 -41 21 -5 29 -2 38 14 6 12 8 26 5
31 -9 15 -48 12 -71 -4z"/>
<path d="M2080 2869 c-15 -27 -6 -49 19 -49 22 0 39 39 26 59 -10 18 -33 13
-45 -10z"/>
<path d="M1995 2871 c-3 -5 -1 -12 5 -16 5 -3 10 1 10 9 0 18 -6 21 -15 7z"/>
<path d="M1465 2820 c-10 -11 -14 -20 -9 -20 12 1 44 25 44 34 0 12 -17 6 -35
-14z"/>
<path d="M1932 2818 c-18 -18 -15 -35 8 -41 24 -6 66 25 56 41 -9 16 -49 15
-64 0z"/>
<path d="M1673 2803 c-7 -2 -13 -11 -13 -20 0 -20 34 -12 38 10 3 17 -3 20
-25 10z"/>
<path d="M1495 2781 c-20 -12 -31 -27 -33 -46 -4 -27 -3 -28 38 -22 50 6 70
21 52 39 -7 7 -12 20 -12 30 0 22 -6 22 -45 -1z"/>
<path d="M1726 2755 c-13 -14 -32 -25 -43 -25 -25 0 -76 -46 -68 -61 15 -24
54 -28 100 -11 39 14 45 20 40 39 -3 13 0 25 9 30 7 4 17 18 20 31 6 18 4 22
-14 22 -11 0 -31 -11 -44 -25z"/>
<path d="M1866 2755 c-15 -14 -24 -30 -21 -35 17 -28 94 12 82 43 -9 24 -30
21 -61 -8z"/>
<path d="M2025 2768 c-36 -20 -44 -42 -19 -52 24 -9 54 12 54 39 0 28 -6 30
-35 13z"/>
<path d="M1911 2696 c-26 -28 -22 -56 8 -56 12 0 18 -6 17 -17 -2 -26 46 -29
68 -4 20 22 14 41 -12 41 -13 0 -18 8 -17 28 0 37 -33 41 -64 8z"/>
<path d="M1480 2660 c0 -5 5 -10 10 -10 6 0 10 5 10 10 0 6 -4 10 -10 10 -5 0
-10 -4 -10 -10z"/>
<path d="M1614 2564 c-19 -28 -14 -36 32 -52 23 -7 35 -7 44 1 8 9 14 8 21 -5
15 -26 64 -23 84 5 15 20 14 23 -5 39 -14 11 -31 15 -49 12 -18 -4 -32 0 -40
10 -21 25 -68 20 -87 -10z"/>
<path d="M1860 2405 c-9 -10 -10 -19 -4 -25 13 -13 49 13 40 28 -10 16 -21 15
-36 -3z"/>
<path d="M1694 2290 c-33 -13 -37 -27 -14 -50 19 -19 22 -19 45 -4 28 18 33
49 9 58 -9 3 -16 6 -17 5 -1 0 -12 -4 -23 -9z"/>
</g>
</svg>
